<svg width="607" height="530" viewBox="0 0 607 530" fill="none" xmlns="http://www.w3.org/2000/svg">
<path d="M12.3317 124V3.74H60.4917V27.12H36.5517V46.3H59.2317V69.4H36.5517V124H12.3317ZM96.1097 125.12C86.2164 125.12 78.843 122.32 73.9897 116.72C69.2297 111.12 66.8497 102.813 66.8497 91.8V3.74H90.2297V90.82C90.2297 94.6467 90.603 97.6333 91.3497 99.78C92.0964 101.927 93.683 103 96.1097 103C98.5364 103 100.123 101.973 100.87 99.92C101.616 97.7733 101.99 94.74 101.99 90.82V3.74H125.37V91.8C125.37 102.813 122.943 111.12 118.09 116.72C113.33 122.32 106.003 125.12 96.1097 125.12ZM144.918 124V26.84H130.638V3.74H183.278V26.84H168.998V124H144.918ZM217.926 125.12C208.033 125.12 200.659 122.32 195.806 116.72C191.046 111.12 188.666 102.813 188.666 91.8V3.74H212.046V90.82C212.046 94.6467 212.419 97.6333 213.166 99.78C213.913 101.927 215.499 103 217.926 103C220.353 103 221.939 101.973 222.686 99.92C223.433 97.7733 223.806 94.74 223.806 90.82V3.74H247.186V91.8C247.186 102.813 244.759 111.12 239.906 116.72C235.146 122.32 227.819 125.12 217.926 125.12ZM256.375 3.74H293.335C299.215 3.74 303.741 5.09333 306.915 7.79999C310.181 10.4133 312.375 14.1467 313.495 19C314.615 23.76 315.175 29.8733 315.175 37.34C315.175 44.1533 314.288 49.4733 312.515 53.3C310.741 57.1267 307.661 59.7867 303.275 61.28C306.915 62.0267 309.528 63.8467 311.115 66.74C312.795 69.6333 313.635 73.5533 313.635 78.5L313.355 124H289.835V76.96C289.835 73.6 289.181 71.4533 287.875 70.52C286.568 69.5867 284.188 69.12 280.735 69.12V124H256.375V3.74ZM286.615 48.26C289.975 48.26 291.655 44.62 291.655 37.34C291.655 34.1667 291.515 31.7867 291.235 30.2C290.955 28.6133 290.441 27.54 289.695 26.98C288.948 26.3267 287.875 26 286.475 26H280.875V48.26H286.615ZM323.093 124V3.74H371.253V26.98H347.593V50.36H370.273V73.04H347.593V100.62H372.793V124H323.093ZM409.349 125.12C398.429 125.12 390.542 122.413 385.689 117C380.835 111.587 378.409 102.86 378.409 90.82V79.06H402.069V94.04C402.069 100.013 403.982 103 407.809 103C409.955 103 411.449 102.393 412.289 101.18C413.129 99.8733 413.549 97.7267 413.549 94.74C413.549 90.82 413.082 87.6 412.149 85.08C411.215 82.4667 410.002 80.32 408.509 78.64C407.109 76.8667 404.542 74.16 400.809 70.52L390.449 60.16C382.422 52.32 378.409 43.64 378.409 34.12C378.409 23.8533 380.742 16.06 385.409 10.74C390.169 5.32666 397.075 2.61999 406.129 2.61999C416.955 2.61999 424.749 5.51333 429.509 11.3C434.269 16.9933 436.649 25.9533 436.649 38.18H412.149L412.009 29.92C412.009 28.3333 411.542 27.0733 410.609 26.14C409.769 25.2067 408.555 24.74 406.969 24.74C405.102 24.74 403.702 25.2533 402.769 26.28C401.835 27.3067 401.369 28.7067 401.369 30.48C401.369 34.4 403.609 38.46 408.089 42.66L422.089 56.1C425.355 59.2733 428.062 62.3067 430.209 65.2C432.355 68 434.082 71.36 435.389 75.28C436.695 79.1067 437.349 83.68 437.349 89C437.349 100.853 435.155 109.86 430.769 116.02C426.475 122.087 419.335 125.12 409.349 125.12ZM6.04266 321V200.74H30.1227V300.56H54.9027V321H6.04266ZM61.6872 321V200.74H109.847V223.98H86.1872V247.36H108.867V270.04H86.1872V297.62H111.387V321H61.6872ZM116.163 321L127.783 200.74H168.523L180.003 321H157.183L155.503 301.54H140.943L139.543 321H116.163ZM142.763 282.36H153.683L148.363 221.18H147.243L142.763 282.36ZM187.332 200.74H220.512C229.098 200.74 235.538 203.12 239.832 207.88C244.125 212.64 246.318 219.687 246.412 229.02L246.692 285.3C246.785 297.153 244.732 306.067 240.532 312.04C236.332 318.013 229.378 321 219.672 321H187.332V200.74ZM215.752 299.72C220.138 299.72 222.332 297.573 222.332 293.28V231.26C222.332 228.553 222.098 226.547 221.632 225.24C221.258 223.84 220.512 222.907 219.392 222.44C218.272 221.973 216.545 221.74 214.212 221.74H211.552V299.72H215.752ZM256.375 321V200.74H304.535V223.98H280.875V247.36H303.555V270.04H280.875V297.62H306.075V321H256.375ZM314.07 200.74H351.03C356.91 200.74 361.437 202.093 364.61 204.8C367.877 207.413 370.07 211.147 371.19 216C372.31 220.76 372.87 226.873 372.87 234.34C372.87 241.153 371.983 246.473 370.21 250.3C368.437 254.127 365.357 256.787 360.97 258.28C364.61 259.027 367.223 260.847 368.81 263.74C370.49 266.633 371.33 270.553 371.33 275.5L371.05 321H347.53V273.96C347.53 270.6 346.877 268.453 345.57 267.52C344.263 266.587 341.883 266.12 338.43 266.12V321H314.07V200.74ZM344.31 245.26C347.67 245.26 349.35 241.62 349.35 234.34C349.35 231.167 349.21 228.787 348.93 227.2C348.65 225.613 348.137 224.54 347.39 223.98C346.643 223.327 345.57 223 344.17 223H338.57V245.26H344.31ZM409.349 322.12C398.429 322.12 390.542 319.413 385.689 314C380.835 308.587 378.409 299.86 378.409 287.82V276.06H402.069V291.04C402.069 297.013 403.982 300 407.809 300C409.955 300 411.449 299.393 412.289 298.18C413.129 296.873 413.549 294.727 413.549 291.74C413.549 287.82 413.082 284.6 412.149 282.08C411.215 279.467 410.002 277.32 408.509 275.64C407.109 273.867 404.542 271.16 400.809 267.52L390.449 257.16C382.422 249.32 378.409 240.64 378.409 231.12C378.409 220.853 380.742 213.06 385.409 207.74C390.169 202.327 397.075 199.62 406.129 199.62C416.955 199.62 424.749 202.513 429.509 208.3C434.269 213.993 436.649 222.953 436.649 235.18H412.149L412.009 226.92C412.009 225.333 411.542 224.073 410.609 223.14C409.769 222.207 408.555 221.74 406.969 221.74C405.102 221.74 403.702 222.253 402.769 223.28C401.835 224.307 401.369 225.707 401.369 227.48C401.369 231.4 403.609 235.46 408.089 239.66L422.089 253.1C425.355 256.273 428.062 259.307 430.209 262.2C432.355 265 434.082 268.36 435.389 272.28C436.695 276.107 437.349 280.68 437.349 286C437.349 297.853 435.155 306.86 430.769 313.02C426.475 319.087 419.335 322.12 409.349 322.12Z" fill="#EEE9DC"/>
<path d="M34.88 503.12C23.96 503.12 16.0733 500.413 11.22 495C6.36667 489.587 3.94 480.86 3.94 468.82V457.06H27.6V472.04C27.6 478.013 29.5133 481 33.34 481C35.4867 481 36.98 480.393 37.82 479.18C38.66 477.873 39.08 475.727 39.08 472.74C39.08 468.82 38.6133 465.6 37.68 463.08C36.7467 460.467 35.5333 458.32 34.04 456.64C32.64 454.867 30.0733 452.16 26.34 448.52L15.98 438.16C7.95333 430.32 3.94 421.64 3.94 412.12C3.94 401.853 6.27333 394.06 10.94 388.74C15.7 383.327 22.6067 380.62 31.66 380.62C42.4867 380.62 50.28 383.513 55.04 389.3C59.8 394.993 62.18 403.953 62.18 416.18H37.68L37.54 407.92C37.54 406.333 37.0733 405.073 36.14 404.14C35.3 403.207 34.0867 402.74 32.5 402.74C30.6333 402.74 29.2333 403.253 28.3 404.28C27.3667 405.307 26.9 406.707 26.9 408.48C26.9 412.4 29.14 416.46 33.62 420.66L47.62 434.1C50.8867 437.273 53.5933 440.307 55.74 443.2C57.8867 446 59.6133 449.36 60.92 453.28C62.2267 457.107 62.88 461.68 62.88 467C62.88 478.853 60.6867 487.86 56.3 494.02C52.0067 500.087 44.8667 503.12 34.88 503.12ZM98.7113 503.12C88.8179 503.12 81.4446 500.32 76.5913 494.72C71.8313 489.12 69.4513 480.813 69.4513 469.8V381.74H92.8313V468.82C92.8313 472.647 93.2046 475.633 93.9513 477.78C94.6979 479.927 96.2846 481 98.7113 481C101.138 481 102.725 479.973 103.471 477.92C104.218 475.773 104.591 472.74 104.591 468.82V381.74H127.971V469.8C127.971 480.813 125.545 489.12 120.691 494.72C115.931 500.32 108.605 503.12 98.7113 503.12ZM137.16 502V381.74H173.84L183.92 455.1L194 381.74H230.96V502H208.98V415.34L195.12 502H173.56L158.86 415.34V502H137.16ZM241.613 502V381.74H278.293L288.373 455.1L298.453 381.74H335.413V502H313.433V415.34L299.573 502H278.013L263.313 415.34V502H241.613ZM344.946 502V381.74H368.186V502H344.946ZM388.145 502V404.84H373.865V381.74H426.505V404.84H412.225V502H388.145ZM470.445 425.14L463.585 381.74H487.665L482.485 425.14H470.445ZM494.927 496.26C494.927 490.753 495.767 485.667 497.447 481C499.22 476.333 501.367 472.133 503.887 468.4C506.407 464.667 509.72 460.28 513.827 455.24C518.027 450.013 521.34 445.58 523.767 441.94C526.287 438.3 528.387 434.147 530.067 429.48C531.84 424.72 532.727 419.587 532.727 414.08C532.727 410.813 532.26 408.293 531.327 406.52C530.393 404.653 528.713 403.72 526.287 403.72C522.273 403.72 520.267 407.313 520.267 414.5V429.2H494.927L494.647 421.78C494.647 412.633 495.58 405.12 497.447 399.24C499.313 393.36 502.58 388.88 507.247 385.8C511.913 382.72 518.353 381.18 526.567 381.18C536.647 381.18 544.44 384.027 549.947 389.72C555.453 395.32 558.207 403.3 558.207 413.66C558.207 420.287 557.273 426.307 555.407 431.72C553.633 437.04 551.393 441.707 548.687 445.72C546.073 449.733 542.573 454.447 538.187 459.86C535.013 463.687 532.353 467.093 530.207 470.08C528.153 473.067 526.287 476.147 524.607 479.32H557.367V502H494.927V496.26ZM576.426 409.32C574.84 411.28 572.6 412.867 569.706 414.08C566.906 415.293 564.2 415.9 561.586 415.9V396.72C565.693 396.067 569.753 394.433 573.766 391.82C577.873 389.207 580.813 385.8 582.586 381.6H601.906V502H576.426V409.32Z" fill="#F1DC13"/>
<path d="M1 523H606.246V530H1V523Z" fill="#F1DC13"/>
</svg>
