<svg width="1920" height="526" viewBox="0 0 1920 526" fill="none" xmlns="http://www.w3.org/2000/svg">
<g opacity="0.1">
<path d="M15.064 430.936C-23.312 430.936 -51.028 421.424 -68.084 402.4C-85.14 383.376 -93.668 352.708 -93.668 310.396V269.068H-10.52V321.712C-10.52 342.704 -3.79599 353.2 9.652 353.2C17.196 353.2 22.444 351.068 25.396 346.804C28.348 342.212 29.824 334.668 29.824 324.172C29.824 310.396 28.184 299.08 24.904 290.224C21.624 281.04 17.36 273.496 12.112 267.592C7.19201 261.36 -1.82799 251.848 -14.948 239.056L-51.356 202.648C-79.564 175.096 -93.668 144.592 -93.668 111.136C-93.668 75.056 -85.468 47.668 -69.068 28.972C-52.34 9.94798 -28.068 0.435979 3.74801 0.435979C41.796 0.435979 69.184 10.604 85.912 30.94C102.64 50.948 111.004 82.436 111.004 125.404H24.904L24.412 96.376C24.412 90.8 22.772 86.372 19.492 83.092C16.54 79.812 12.276 78.172 6.7 78.172C0.140006 78.172 -4.77999 79.976 -8.06 83.584C-11.34 87.192 -12.98 92.112 -12.98 98.344C-12.98 112.12 -5.108 126.388 10.636 141.148L59.836 188.38C71.316 199.532 80.828 210.192 88.372 220.36C95.916 230.2 101.984 242.008 106.576 255.784C111.168 269.232 113.464 285.304 113.464 304C113.464 345.656 105.756 377.308 90.34 398.956C75.252 420.276 50.16 430.936 15.064 430.936ZM239.385 430.936C204.617 430.936 178.705 421.096 161.649 401.416C144.921 381.736 136.557 352.544 136.557 313.84V4.37199H218.721V310.396C218.721 323.844 220.033 334.34 222.657 341.884C225.281 349.428 230.857 353.2 239.385 353.2C247.913 353.2 253.489 349.592 256.113 342.376C258.737 334.832 260.049 324.172 260.049 310.396V4.37199H342.213V313.84C342.213 352.544 333.685 381.736 316.629 401.416C299.901 421.096 274.153 430.936 239.385 430.936ZM374.505 427V4.37199H503.409L538.833 262.18L574.257 4.37199H704.145V427H626.901V122.452L578.193 427H502.425L450.765 122.452V427H374.505ZM741.583 427V4.37199H870.487L905.911 262.18L941.335 4.37199H1071.22V427H993.979V122.452L945.271 427H869.503L817.843 122.452V427H741.583ZM1104.72 427V4.37199H1186.4V427H1104.72ZM1256.54 427V85.552H1206.35V4.37199H1391.35V85.552H1341.16V427H1256.54ZM1545.76 156.892L1521.66 4.37199H1606.28L1588.08 156.892H1545.76ZM1631.8 406.828C1631.8 387.476 1634.75 369.6 1640.66 353.2C1646.89 336.8 1654.43 322.04 1663.29 308.92C1672.14 295.8 1683.79 280.384 1698.22 262.672C1712.98 244.304 1724.62 228.724 1733.15 215.932C1742.01 203.14 1749.39 188.544 1755.29 172.144C1761.52 155.416 1764.64 137.376 1764.64 118.024C1764.64 106.544 1763 97.688 1759.72 91.456C1756.44 84.896 1750.54 81.616 1742.01 81.616C1727.9 81.616 1720.85 94.244 1720.85 119.5V171.16H1631.8L1630.82 145.084C1630.82 112.94 1634.1 86.536 1640.66 65.872C1647.22 45.208 1658.7 29.464 1675.1 18.64C1691.5 7.81598 1714.13 2.40398 1742.99 2.40398C1778.42 2.40398 1805.8 12.408 1825.16 32.416C1844.51 52.096 1854.18 80.14 1854.18 116.548C1854.18 139.836 1850.9 160.992 1844.34 180.016C1838.11 198.712 1830.24 215.112 1820.73 229.216C1811.54 243.32 1799.24 259.884 1783.83 278.908C1772.68 292.356 1763.33 304.328 1755.78 314.824C1748.57 325.32 1742.01 336.144 1736.1 347.296H1851.23V427H1631.8V406.828ZM1918.21 101.296C1912.64 108.184 1904.76 113.76 1894.6 118.024C1884.76 122.288 1875.24 124.42 1866.06 124.42V57.016C1880.49 54.72 1894.76 48.98 1908.86 39.796C1923.3 30.612 1933.63 18.64 1939.86 3.87999H2007.76V427H1918.21V101.296Z" fill="white"/>
<path d="M-104 500.8H2023.01V525.4H-104V500.8Z" fill="white"/>
</g>
</svg>
