<svg width="992" height="344" viewBox="0 0 992 344" fill="none" xmlns="http://www.w3.org/2000/svg">
<path d="M342.668 290.473H355.229C358.48 290.473 360.918 291.374 362.543 293.176C364.169 294.978 364.999 297.646 365.034 301.179L365.14 322.485C365.176 326.972 364.398 330.347 362.808 332.608C361.218 334.869 358.586 336 354.911 336H342.668V290.473ZM353.427 327.944C355.088 327.944 355.918 327.131 355.918 325.506V302.027C355.918 301.002 355.83 300.243 355.653 299.748C355.512 299.218 355.229 298.865 354.805 298.688C354.381 298.511 353.728 298.423 352.844 298.423H351.837V327.944H353.427ZM368.806 336V290.473H387.038V299.271H378.081V308.122H386.667V316.708H378.081V327.149H387.621V336H368.806ZM401.248 336.424C397.926 336.424 395.259 335.382 393.245 333.297C391.266 331.212 390.277 328.35 390.277 324.711V303.723C390.277 299.2 391.178 295.791 392.98 293.494C394.782 291.197 397.608 290.049 401.46 290.049C404.816 290.049 407.519 290.968 409.569 292.805C411.618 294.642 412.643 297.292 412.643 300.755V308.599H403.58V301.868C403.58 300.561 403.421 299.66 403.103 299.165C402.785 298.67 402.237 298.423 401.46 298.423C400.647 298.423 400.082 298.706 399.764 299.271C399.481 299.836 399.34 300.667 399.34 301.762V324.605C399.34 325.806 399.516 326.69 399.87 327.255C400.223 327.785 400.753 328.05 401.46 328.05C402.873 328.05 403.58 326.902 403.58 324.605V316.39H412.749V324.976C412.749 332.608 408.915 336.424 401.248 336.424ZM415.75 336V290.473H433.982V299.271H425.025V308.122H433.611V316.708H425.025V327.149H434.565V336H415.75ZM437.592 336V290.473H451.478L455.294 318.245L459.11 290.473H473.102V336H464.781V303.193L459.534 336H451.372L445.807 303.193V336H437.592ZM477.135 290.473H489.484C492.805 290.473 495.208 291.286 496.692 292.911C498.211 294.536 498.971 297.186 498.971 300.861V302.875C498.971 307.221 497.416 309.818 494.307 310.666C496.215 311.161 497.558 312.309 498.335 314.111C499.112 315.913 499.501 318.298 499.501 321.266C499.501 326.107 498.777 329.781 497.328 332.29C495.879 334.763 493.265 336 489.484 336H477.135V290.473ZM487.894 307.592C488.671 307.592 489.201 307.309 489.484 306.744C489.767 306.143 489.908 305.313 489.908 304.253V299.695C489.908 298.211 489.254 297.469 487.947 297.469H486.039V307.592H487.894ZM486.94 327.997C489.307 327.997 490.491 326.866 490.491 324.605V318.934C490.491 317.556 490.279 316.514 489.855 315.807C489.466 315.1 488.76 314.747 487.735 314.747H486.039V327.944L486.94 327.997ZM502.496 336V290.473H520.728V299.271H511.771V308.122H520.357V316.708H511.771V327.149H521.311V336H502.496ZM524.338 290.473H538.33C540.556 290.473 542.27 290.985 543.471 292.01C544.708 292.999 545.538 294.413 545.962 296.25C546.386 298.052 546.598 300.366 546.598 303.193C546.598 305.772 546.263 307.786 545.591 309.235C544.92 310.684 543.754 311.691 542.093 312.256C543.471 312.539 544.461 313.228 545.061 314.323C545.697 315.418 546.015 316.902 546.015 318.775L545.909 336H537.005V318.192C537.005 316.92 536.758 316.107 536.263 315.754C535.769 315.401 534.868 315.224 533.56 315.224V336H524.338V290.473ZM535.786 307.327C537.058 307.327 537.694 305.949 537.694 303.193C537.694 301.992 537.641 301.091 537.535 300.49C537.429 299.889 537.235 299.483 536.952 299.271C536.67 299.024 536.263 298.9 535.733 298.9H533.613V307.327H535.786ZM550.603 342.095L552.299 336H549.013V328.262H558.659V335.735L556.062 342.095H550.603ZM574.119 333.827C574.119 331.742 574.437 329.817 575.073 328.05C575.745 326.283 576.557 324.693 577.511 323.28C578.465 321.867 579.72 320.206 581.274 318.298C582.864 316.319 584.119 314.641 585.037 313.263C585.991 311.885 586.786 310.313 587.422 308.546C588.094 306.744 588.429 304.801 588.429 302.716C588.429 301.479 588.253 300.525 587.899 299.854C587.546 299.147 586.91 298.794 585.991 298.794C584.472 298.794 583.712 300.154 583.712 302.875V308.44H574.119L574.013 305.631C574.013 302.168 574.367 299.324 575.073 297.098C575.78 294.872 577.017 293.176 578.783 292.01C580.55 290.844 582.988 290.261 586.097 290.261C589.913 290.261 592.864 291.339 594.948 293.494C597.033 295.614 598.075 298.635 598.075 302.557C598.075 305.066 597.722 307.345 597.015 309.394C596.344 311.408 595.496 313.175 594.471 314.694C593.482 316.213 592.157 317.998 590.496 320.047C589.295 321.496 588.288 322.785 587.475 323.916C586.698 325.047 585.991 326.213 585.355 327.414H597.757V336H574.119V333.827ZM611.81 336.424C607.958 336.424 604.99 335.346 602.906 333.191C600.821 331 599.779 327.891 599.779 323.863V303.299C599.779 298.988 600.786 295.702 602.8 293.441C604.814 291.18 607.817 290.049 611.81 290.049C615.838 290.049 618.859 291.18 620.873 293.441C622.887 295.702 623.894 298.988 623.894 303.299V323.863C623.894 327.926 622.851 331.036 620.767 333.191C618.682 335.346 615.696 336.424 611.81 336.424ZM611.81 328.05C612.481 328.05 613.029 327.75 613.453 327.149C613.877 326.513 614.089 325.771 614.089 324.923V302.451C614.089 301.144 613.93 300.154 613.612 299.483C613.329 298.776 612.728 298.423 611.81 298.423C610.891 298.423 610.29 298.776 610.008 299.483C609.725 300.154 609.584 301.144 609.584 302.451V324.923C609.584 325.771 609.778 326.513 610.167 327.149C610.591 327.75 611.138 328.05 611.81 328.05ZM626.498 333.827C626.498 331.742 626.816 329.817 627.452 328.05C628.124 326.283 628.936 324.693 629.89 323.28C630.844 321.867 632.099 320.206 633.653 318.298C635.243 316.319 636.498 314.641 637.416 313.263C638.37 311.885 639.165 310.313 639.801 308.546C640.473 306.744 640.808 304.801 640.808 302.716C640.808 301.479 640.632 300.525 640.278 299.854C639.925 299.147 639.289 298.794 638.37 298.794C636.851 298.794 636.091 300.154 636.091 302.875V308.44H626.498L626.392 305.631C626.392 302.168 626.746 299.324 627.452 297.098C628.159 294.872 629.396 293.176 631.162 292.01C632.929 290.844 635.367 290.261 638.476 290.261C642.292 290.261 645.243 291.339 647.327 293.494C649.412 295.614 650.454 298.635 650.454 302.557C650.454 305.066 650.101 307.345 649.394 309.394C648.723 311.408 647.875 313.175 646.85 314.694C645.861 316.213 644.536 317.998 642.875 320.047C641.674 321.496 640.667 322.785 639.854 323.916C639.077 325.047 638.37 326.213 637.734 327.414H650.136V336H626.498V333.827ZM657.352 300.914C656.751 301.656 655.903 302.257 654.808 302.716C653.748 303.175 652.723 303.405 651.734 303.405V296.144C653.288 295.897 654.825 295.278 656.345 294.289C657.899 293.3 659.012 292.01 659.684 290.42H666.998V336H657.352V300.914Z" fill="white"/>
<path d="M776.944 336V299.218H771.538V290.473H791.466V299.218H786.06V336H776.944ZM804.582 336.424C800.837 336.424 798.046 335.364 796.208 333.244C794.406 331.124 793.505 327.979 793.505 323.81V290.473H802.356V323.439C802.356 324.888 802.498 326.018 802.78 326.831C803.063 327.644 803.664 328.05 804.582 328.05C805.501 328.05 806.102 327.661 806.384 326.884C806.667 326.071 806.808 324.923 806.808 323.439V290.473H815.659V323.81C815.659 327.979 814.741 331.124 812.903 333.244C811.101 335.364 808.328 336.424 804.582 336.424ZM817.972 336V327.732L828.36 298.847H818.979V290.473H838.006V298.423L827.353 327.626H837.529V336H817.972ZM840.876 336V290.473H849.992V328.262H859.373V336H840.876ZM860.723 336L865.122 290.473H880.545L884.891 336H876.252L875.616 328.633H870.104L869.574 336H860.723ZM870.793 321.372H874.927L872.913 298.211H872.489L870.793 321.372ZM888.672 342.095L890.368 336H887.082V328.262H896.728V335.735L894.131 342.095H888.672ZM912.613 290.473H924.962C928.283 290.473 930.686 291.286 932.17 292.911C933.689 294.536 934.449 297.186 934.449 300.861V302.875C934.449 307.221 932.894 309.818 929.785 310.666C931.693 311.161 933.035 312.309 933.813 314.111C934.59 315.913 934.979 318.298 934.979 321.266C934.979 326.107 934.254 329.781 932.806 332.29C931.357 334.763 928.742 336 924.962 336H912.613V290.473ZM923.372 307.592C924.149 307.592 924.679 307.309 924.962 306.744C925.244 306.143 925.386 305.313 925.386 304.253V299.695C925.386 298.211 924.732 297.469 923.425 297.469H921.517V307.592H923.372ZM922.418 327.997C924.785 327.997 925.969 326.866 925.969 324.605V318.934C925.969 317.556 925.757 316.514 925.333 315.807C924.944 315.1 924.237 314.747 923.213 314.747H921.517V327.944L922.418 327.997ZM945.182 336.53C942.461 336.53 940.394 335.558 938.981 333.615C937.568 331.672 936.861 329.145 936.861 326.036C936.861 322.573 937.356 319.8 938.345 317.715C939.334 315.595 940.889 313.74 943.009 312.15C941.278 308.758 940.412 305.825 940.412 303.352C940.412 300.773 941.242 298.759 942.903 297.31C944.599 295.826 946.772 295.084 949.422 295.084C952.037 295.084 954.174 295.791 955.835 297.204C957.531 298.582 958.379 300.525 958.379 303.034C958.379 306.709 956.347 310.154 952.284 313.369L953.927 317.238C954.916 314.623 956.4 312.592 958.379 311.143L961.983 316.761C959.898 318.386 958.202 321.072 956.895 324.817L961.506 336H952.708L951.754 333.509C951.012 334.392 950.058 335.117 948.892 335.682C947.761 336.247 946.525 336.53 945.182 336.53ZM950.376 306.797C950.729 306.408 951.047 305.861 951.33 305.154C951.613 304.412 951.754 303.705 951.754 303.034C951.754 301.974 951.242 301.444 950.217 301.444C949.793 301.444 949.457 301.603 949.21 301.921C948.963 302.204 948.839 302.575 948.839 303.034C948.839 303.953 949.21 305.366 949.952 307.274L950.376 306.797ZM946.613 329.905C947.284 329.905 947.85 329.658 948.309 329.163C948.768 328.633 949.069 328.032 949.21 327.361L946.083 319.835L945.765 320.312C945.482 320.736 945.253 321.407 945.076 322.326C944.899 323.245 944.811 324.146 944.811 325.029V325.294C944.811 326.672 944.917 327.785 945.129 328.633C945.341 329.481 945.836 329.905 946.613 329.905ZM964.733 336V290.473H973.796V306.744H978.089V290.473H987.152V336H978.089V315.33H973.796V336H964.733Z" fill="white"/>
<path d="M172.847 0L322.537 85.75V257.25L172.847 343L23.1571 257.25V85.75L172.847 0Z" fill="#EFE200"/>
<path d="M722.63 286L747.942 300.5V329.5L722.63 344L697.318 329.5V300.5L722.63 286Z" fill="#EFE200"/>
<path d="M123.41 221.84C115.22 221.84 109.305 219.81 105.665 215.75C102.025 211.69 100.205 205.145 100.205 196.115V187.295H117.95V198.53C117.95 203.01 119.385 205.25 122.255 205.25C123.865 205.25 124.985 204.795 125.615 203.885C126.245 202.905 126.56 201.295 126.56 199.055C126.56 196.115 126.21 193.7 125.51 191.81C124.81 189.85 123.9 188.24 122.78 186.98C121.73 185.65 119.805 183.62 117.005 180.89L109.235 173.12C103.215 167.24 100.205 160.73 100.205 153.59C100.205 145.89 101.955 140.045 105.455 136.055C109.025 131.995 114.205 129.965 120.995 129.965C129.115 129.965 134.96 132.135 138.53 136.475C142.1 140.745 143.885 147.465 143.885 156.635H125.51L125.405 150.44C125.405 149.25 125.055 148.305 124.355 147.605C123.725 146.905 122.815 146.555 121.625 146.555C120.225 146.555 119.175 146.94 118.475 147.71C117.775 148.48 117.425 149.53 117.425 150.86C117.425 153.8 119.105 156.845 122.465 159.995L132.965 170.075C135.415 172.455 137.445 174.73 139.055 176.9C140.665 179 141.96 181.52 142.94 184.46C143.92 187.33 144.41 190.76 144.41 194.75C144.41 203.64 142.765 210.395 139.475 215.015C136.255 219.565 130.9 221.84 123.41 221.84ZM158.158 221V148.13H147.448V130.805H186.928V148.13H176.218V221H158.158ZM192.019 221V130.805H228.139V148.235H210.394V165.77H227.404V182.78H210.394V203.465H229.294V221H192.019ZM235.291 221V130.805H262.801L270.361 185.825L277.921 130.805H305.641V221H289.156V156.005L278.761 221H262.591L251.566 156.005V221H235.291Z" fill="#131313"/>
<path d="M359.765 221.84C352.485 221.84 346.955 219.635 343.175 215.225C339.395 210.745 337.505 204.48 337.505 196.43V153.485C337.505 145.715 339.395 139.87 343.175 135.95C346.955 131.96 352.485 129.965 359.765 129.965C367.045 129.965 372.575 131.96 376.355 135.95C380.135 139.87 382.025 145.715 382.025 153.485V196.43C382.025 204.55 380.135 210.815 376.355 215.225C372.575 219.635 367.045 221.84 359.765 221.84ZM359.765 205.25C361.375 205.25 362.46 204.55 363.02 203.15C363.58 201.75 363.86 199.79 363.86 197.27V153.17C363.86 151.21 363.58 149.635 363.02 148.445C362.53 147.185 361.48 146.555 359.87 146.555C356.86 146.555 355.355 148.83 355.355 153.38V197.375C355.355 199.965 355.67 201.925 356.3 203.255C356.93 204.585 358.085 205.25 359.765 205.25ZM410.199 221.84C402.779 221.84 397.249 219.74 393.609 215.54C390.039 211.34 388.254 205.11 388.254 196.85V130.805H405.789V196.115C405.789 198.985 406.069 201.225 406.629 202.835C407.189 204.445 408.379 205.25 410.199 205.25C412.019 205.25 413.209 204.48 413.769 202.94C414.329 201.33 414.609 199.055 414.609 196.115V130.805H432.144V196.85C432.144 205.11 430.324 211.34 426.684 215.54C423.114 219.74 417.619 221.84 410.199 221.84ZM446.806 221V148.13H436.096V130.805H475.576V148.13H464.866V221H446.806ZM502.087 221.84C493.897 221.84 487.982 219.81 484.342 215.75C480.702 211.69 478.882 205.145 478.882 196.115V187.295H496.627V198.53C496.627 203.01 498.062 205.25 500.932 205.25C502.542 205.25 503.662 204.795 504.292 203.885C504.922 202.905 505.237 201.295 505.237 199.055C505.237 196.115 504.887 193.7 504.187 191.81C503.487 189.85 502.577 188.24 501.457 186.98C500.407 185.65 498.482 183.62 495.682 180.89L487.912 173.12C481.892 167.24 478.882 160.73 478.882 153.59C478.882 145.89 480.632 140.045 484.132 136.055C487.702 131.995 492.882 129.965 499.672 129.965C507.792 129.965 513.637 132.135 517.207 136.475C520.777 140.745 522.562 147.465 522.562 156.635H504.187L504.082 150.44C504.082 149.25 503.732 148.305 503.032 147.605C502.402 146.905 501.492 146.555 500.302 146.555C498.902 146.555 497.852 146.94 497.152 147.71C496.452 148.48 496.102 149.53 496.102 150.86C496.102 153.8 497.782 156.845 501.142 159.995L511.642 170.075C514.092 172.455 516.122 174.73 517.732 176.9C519.342 179 520.637 181.52 521.617 184.46C522.597 187.33 523.087 190.76 523.087 194.75C523.087 203.64 521.442 210.395 518.152 215.015C514.932 219.565 509.577 221.84 502.087 221.84ZM528.225 221V130.805H545.655V221H528.225ZM552.854 130.805H577.739C584.179 130.805 589.009 132.59 592.229 136.16C595.449 139.73 597.094 145.015 597.164 152.015L597.374 194.225C597.444 203.115 595.904 209.8 592.754 214.28C589.604 218.76 584.389 221 577.109 221H552.854V130.805ZM574.169 205.04C577.459 205.04 579.104 203.43 579.104 200.21V153.695C579.104 151.665 578.929 150.16 578.579 149.18C578.299 148.13 577.739 147.43 576.899 147.08C576.059 146.73 574.764 146.555 573.014 146.555H571.019V205.04H574.169ZM604.636 221V130.805H640.756V148.235H623.011V165.77H640.021V182.78H623.011V203.465H641.911V221H604.636ZM680.287 221V148.13H669.577V130.805H709.057V148.13H698.347V221H680.287ZM714.148 221V130.805H732.103V163.04H740.608V130.805H758.563V221H740.608V180.05H732.103V221H714.148ZM766.546 221V130.805H802.666V148.235H784.921V165.77H801.931V182.78H784.921V203.465H803.821V221H766.546ZM834.427 130.805H858.892C865.472 130.805 870.232 132.415 873.172 135.635C876.182 138.855 877.687 144.105 877.687 151.385V155.375C877.687 163.985 874.607 169.13 868.447 170.81C872.227 171.79 874.887 174.065 876.427 177.635C877.967 181.205 878.737 185.93 878.737 191.81C878.737 201.4 877.302 208.68 874.432 213.65C871.562 218.55 866.382 221 858.892 221H834.427V130.805ZM855.742 164.72C857.282 164.72 858.332 164.16 858.892 163.04C859.452 161.85 859.732 160.205 859.732 158.105V149.075C859.732 146.135 858.437 144.665 855.847 144.665H852.067V164.72H855.742ZM853.852 205.145C858.542 205.145 860.887 202.905 860.887 198.425V187.19C860.887 184.46 860.467 182.395 859.627 180.995C858.857 179.595 857.457 178.895 855.427 178.895H852.067V205.04L853.852 205.145ZM906.196 221.84C898.916 221.84 893.386 219.635 889.606 215.225C885.826 210.745 883.936 204.48 883.936 196.43V153.485C883.936 145.715 885.826 139.87 889.606 135.95C893.386 131.96 898.916 129.965 906.196 129.965C913.476 129.965 919.006 131.96 922.786 135.95C926.566 139.87 928.456 145.715 928.456 153.485V196.43C928.456 204.55 926.566 210.815 922.786 215.225C919.006 219.635 913.476 221.84 906.196 221.84ZM906.196 205.25C907.806 205.25 908.891 204.55 909.451 203.15C910.011 201.75 910.291 199.79 910.291 197.27V153.17C910.291 151.21 910.011 149.635 909.451 148.445C908.961 147.185 907.911 146.555 906.301 146.555C903.291 146.555 901.786 148.83 901.786 153.38V197.375C901.786 199.965 902.101 201.925 902.731 203.255C903.361 204.585 904.516 205.25 906.196 205.25ZM933.11 221L942.77 173.12L935.105 130.7H952.745L957.47 161.78L961.565 130.7H979.31L971.54 173.12L981.2 221H962.93L957.26 185.72L951.485 221H933.11Z" fill="#EEE9DC"/>
</svg>
