<svg width="992" height="343" viewBox="0 0 992 343" fill="none" xmlns="http://www.w3.org/2000/svg">
<path d="M338.72 290.52C338.267 291.08 337.627 291.533 336.8 291.88C336 292.227 335.227 292.4 334.48 292.4V286.92C335.653 286.733 336.813 286.267 337.96 285.52C339.133 284.773 339.973 283.8 340.48 282.6H346V317H338.72V290.52ZM357.122 317.48C354.376 317.48 352.189 316.813 350.562 315.48C348.936 314.12 348.122 312.12 348.122 309.48V304.4H355.282V307.32C355.282 308.493 355.402 309.413 355.642 310.08C355.882 310.747 356.376 311.08 357.122 311.08C357.816 311.08 358.282 310.853 358.522 310.4C358.789 309.947 358.922 309.28 358.922 308.4V301.64C358.922 300.547 358.802 299.68 358.562 299.04C358.349 298.373 357.882 298.04 357.162 298.04C355.856 298.04 355.202 298.987 355.202 300.88H348.922V282.6H365.282V289.04H355.442V293.88C355.789 293.427 356.256 293.053 356.842 292.76C357.429 292.467 358.096 292.32 358.842 292.32C361.722 292.32 363.682 293.333 364.722 295.36C365.789 297.387 366.322 300.253 366.322 303.96C366.322 307.027 366.096 309.52 365.642 311.44C365.216 313.333 364.336 314.813 363.002 315.88C361.669 316.947 359.709 317.48 357.122 317.48ZM368.168 307.04V302.52H378.248V307.04H368.168ZM384.15 290.52C383.696 291.08 383.056 291.533 382.23 291.88C381.43 292.227 380.656 292.4 379.91 292.4V286.92C381.083 286.733 382.243 286.267 383.39 285.52C384.563 284.773 385.403 283.8 385.91 282.6H391.43V317H384.15V290.52ZM395.512 317C395.752 313.32 396.339 309.88 397.272 306.68C398.232 303.48 399.552 299.773 401.232 295.56C401.765 294.227 402.152 293.227 402.392 292.56L403.752 288.96H394.032V282.6H411.392V287.72C411.259 288.973 410.979 290.173 410.552 291.32C410.152 292.44 409.579 293.813 408.832 295.44C408.245 296.667 407.792 297.693 407.472 298.52C406.325 301.48 405.392 304.467 404.672 307.48C403.952 310.467 403.485 313.64 403.272 317H395.512ZM423.333 282.64H432.813C435.266 282.64 437.106 283.32 438.333 284.68C439.559 286.04 440.186 288.053 440.213 290.72L440.293 306.8C440.319 310.187 439.733 312.733 438.533 314.44C437.333 316.147 435.346 317 432.573 317H423.333V282.64ZM431.453 310.92C432.706 310.92 433.333 310.307 433.333 309.08V291.36C433.333 290.587 433.266 290.013 433.133 289.64C433.026 289.24 432.813 288.973 432.493 288.84C432.173 288.707 431.679 288.64 431.013 288.64H430.253V310.92H431.453ZM443.059 317V282.64H456.819V289.28H450.059V295.96H456.539V302.44H450.059V310.32H457.259V317H443.059ZM467.543 317.32C465.037 317.32 463.023 316.533 461.503 314.96C460.01 313.387 459.263 311.227 459.263 308.48V292.64C459.263 289.227 459.943 286.653 461.303 284.92C462.663 283.187 464.797 282.32 467.703 282.32C470.237 282.32 472.277 283.013 473.823 284.4C475.37 285.787 476.143 287.787 476.143 290.4V296.32H469.303V291.24C469.303 290.253 469.183 289.573 468.943 289.2C468.703 288.827 468.29 288.64 467.703 288.64C467.09 288.64 466.663 288.853 466.423 289.28C466.21 289.707 466.103 290.333 466.103 291.16V308.4C466.103 309.307 466.237 309.973 466.503 310.4C466.77 310.8 467.17 311 467.703 311C468.77 311 469.303 310.133 469.303 308.4V302.2H476.223V308.68C476.223 314.44 473.33 317.32 467.543 317.32ZM478.489 317V282.64H492.249V289.28H485.489V295.96H491.969V302.44H485.489V310.32H492.689V317H478.489ZM494.973 317V282.64H505.453L508.333 303.6L511.213 282.64H521.773V317H515.493V292.24L511.533 317H505.373L501.173 292.24V317H494.973ZM524.817 282.64H534.137C536.644 282.64 538.457 283.253 539.577 284.48C540.724 285.707 541.297 287.707 541.297 290.48V292C541.297 295.28 540.124 297.24 537.777 297.88C539.217 298.253 540.23 299.12 540.817 300.48C541.404 301.84 541.697 303.64 541.697 305.88C541.697 309.533 541.15 312.307 540.057 314.2C538.964 316.067 536.99 317 534.137 317H524.817V282.64ZM532.937 295.56C533.524 295.56 533.924 295.347 534.137 294.92C534.35 294.467 534.457 293.84 534.457 293.04V289.6C534.457 288.48 533.964 287.92 532.977 287.92H531.537V295.56H532.937ZM532.217 310.96C534.004 310.96 534.897 310.107 534.897 308.4V304.12C534.897 303.08 534.737 302.293 534.417 301.76C534.124 301.227 533.59 300.96 532.817 300.96H531.537V310.92L532.217 310.96ZM543.038 317L546.358 282.64H557.998L561.278 317H554.758L554.278 311.44H550.118L549.718 317H543.038ZM550.638 305.96H553.758L552.238 288.48H551.918L550.638 305.96ZM563.372 282.64H573.932C575.612 282.64 576.905 283.027 577.812 283.8C578.745 284.547 579.372 285.613 579.692 287C580.012 288.36 580.172 290.107 580.172 292.24C580.172 294.187 579.918 295.707 579.412 296.8C578.905 297.893 578.025 298.653 576.772 299.08C577.812 299.293 578.558 299.813 579.012 300.64C579.492 301.467 579.732 302.587 579.732 304L579.652 317H572.932V303.56C572.932 302.6 572.745 301.987 572.372 301.72C571.998 301.453 571.318 301.32 570.332 301.32V317H563.372V282.64ZM572.012 295.36C572.972 295.36 573.452 294.32 573.452 292.24C573.452 291.333 573.412 290.653 573.332 290.2C573.252 289.747 573.105 289.44 572.892 289.28C572.678 289.093 572.372 289 571.972 289H570.372V295.36H572.012ZM583.194 321.6L584.474 317H581.994V311.16H589.274V316.8L587.314 321.6H583.194ZM600.942 315.36C600.942 313.787 601.182 312.333 601.662 311C602.169 309.667 602.782 308.467 603.502 307.4C604.222 306.333 605.169 305.08 606.342 303.64C607.542 302.147 608.489 300.88 609.182 299.84C609.902 298.8 610.502 297.613 610.982 296.28C611.489 294.92 611.742 293.453 611.742 291.88C611.742 290.947 611.609 290.227 611.342 289.72C611.076 289.187 610.596 288.92 609.902 288.92C608.756 288.92 608.182 289.947 608.182 292V296.2H600.942L600.862 294.08C600.862 291.467 601.129 289.32 601.662 287.64C602.196 285.96 603.129 284.68 604.462 283.8C605.796 282.92 607.636 282.48 609.982 282.48C612.862 282.48 615.089 283.293 616.662 284.92C618.236 286.52 619.022 288.8 619.022 291.76C619.022 293.653 618.756 295.373 618.222 296.92C617.716 298.44 617.076 299.773 616.302 300.92C615.556 302.067 614.556 303.413 613.302 304.96C612.396 306.053 611.636 307.027 611.022 307.88C610.436 308.733 609.902 309.613 609.422 310.52H618.782V317H600.942V315.36ZM629.388 317.32C626.481 317.32 624.241 316.507 622.668 314.88C621.094 313.227 620.308 310.88 620.308 307.84V292.32C620.308 289.067 621.068 286.587 622.588 284.88C624.108 283.173 626.374 282.32 629.388 282.32C632.428 282.32 634.708 283.173 636.228 284.88C637.748 286.587 638.508 289.067 638.508 292.32V307.84C638.508 310.907 637.721 313.253 636.148 314.88C634.574 316.507 632.321 317.32 629.388 317.32ZM629.388 311C629.894 311 630.308 310.773 630.628 310.32C630.948 309.84 631.108 309.28 631.108 308.64V291.68C631.108 290.693 630.988 289.947 630.748 289.44C630.534 288.907 630.081 288.64 629.388 288.64C628.694 288.64 628.241 288.907 628.028 289.44C627.814 289.947 627.708 290.693 627.708 291.68V308.64C627.708 309.28 627.854 309.84 628.148 310.32C628.468 310.773 628.881 311 629.388 311ZM640.473 315.36C640.473 313.787 640.713 312.333 641.193 311C641.7 309.667 642.313 308.467 643.033 307.4C643.753 306.333 644.7 305.08 645.873 303.64C647.073 302.147 648.02 300.88 648.713 299.84C649.433 298.8 650.033 297.613 650.513 296.28C651.02 294.92 651.273 293.453 651.273 291.88C651.273 290.947 651.14 290.227 650.873 289.72C650.607 289.187 650.127 288.92 649.433 288.92C648.287 288.92 647.713 289.947 647.713 292V296.2H640.473L640.393 294.08C640.393 291.467 640.66 289.32 641.193 287.64C641.727 285.96 642.66 284.68 643.993 283.8C645.327 282.92 647.167 282.48 649.513 282.48C652.393 282.48 654.62 283.293 656.193 284.92C657.767 286.52 658.553 288.8 658.553 291.76C658.553 293.653 658.287 295.373 657.753 296.92C657.247 298.44 656.607 299.773 655.833 300.92C655.087 302.067 654.087 303.413 652.833 304.96C651.927 306.053 651.167 307.027 650.553 307.88C649.967 308.733 649.433 309.613 648.953 310.52H658.313V317H640.473V315.36ZM663.759 290.52C663.306 291.08 662.666 291.533 661.839 291.88C661.039 292.227 660.266 292.4 659.519 292.4V286.92C660.692 286.733 661.852 286.267 662.999 285.52C664.172 284.773 665.012 283.8 665.519 282.6H671.039V317H663.759V290.52Z" fill="white"/>
<path d="M753.52 282.64H762.84C765.347 282.64 767.16 283.253 768.28 284.48C769.427 285.707 770 287.707 770 290.48V292C770 295.28 768.827 297.24 766.48 297.88C767.92 298.253 768.933 299.12 769.52 300.48C770.107 301.84 770.4 303.64 770.4 305.88C770.4 309.533 769.853 312.307 768.76 314.2C767.667 316.067 765.693 317 762.84 317H753.52V282.64ZM761.64 295.56C762.227 295.56 762.627 295.347 762.84 294.92C763.053 294.467 763.16 293.84 763.16 293.04V289.6C763.16 288.48 762.667 287.92 761.68 287.92H760.24V295.56H761.64ZM760.92 310.96C762.707 310.96 763.6 310.107 763.6 308.4V304.12C763.6 303.08 763.44 302.293 763.12 301.76C762.827 301.227 762.293 300.96 761.52 300.96H760.24V310.92L760.92 310.96ZM772.661 317V282.64H779.461V296.4L782.661 282.64H789.581L785.741 298.36L790.381 317H783.261L779.501 300.36V317H772.661ZM799.528 317.32C797.021 317.32 795.008 316.533 793.488 314.96C791.994 313.387 791.248 311.227 791.248 308.48V292.64C791.248 289.227 791.928 286.653 793.288 284.92C794.648 283.187 796.781 282.32 799.688 282.32C802.221 282.32 804.261 283.013 805.808 284.4C807.354 285.787 808.128 287.787 808.128 290.4V296.32H801.288V291.24C801.288 290.253 801.168 289.573 800.928 289.2C800.688 288.827 800.274 288.64 799.688 288.64C799.074 288.64 798.648 288.853 798.408 289.28C798.194 289.707 798.088 290.333 798.088 291.16V308.4C798.088 309.307 798.221 309.973 798.488 310.4C798.754 310.8 799.154 311 799.688 311C800.754 311 801.288 310.133 801.288 308.4V302.2H808.208V308.68C808.208 314.44 805.314 317.32 799.528 317.32ZM822.808 317V289.24H818.728V282.64H833.768V289.24H829.688V317H822.808ZM843.668 317.32C840.841 317.32 838.734 316.52 837.348 314.92C835.988 313.32 835.308 310.947 835.308 307.8V282.64H841.988V307.52C841.988 308.613 842.094 309.467 842.308 310.08C842.521 310.693 842.974 311 843.668 311C844.361 311 844.814 310.707 845.028 310.12C845.241 309.507 845.348 308.64 845.348 307.52V282.64H852.028V307.8C852.028 310.947 851.334 313.32 849.948 314.92C848.588 316.52 846.494 317.32 843.668 317.32ZM853.773 317V310.76L861.613 288.96H854.533V282.64H868.893V288.64L860.853 310.68H868.533V317H853.773ZM871.059 317V282.64H877.939V311.16H885.019V317H871.059ZM886.038 317L889.358 282.64H900.998L904.278 317H897.758L897.278 311.44H893.118L892.718 317H886.038ZM893.638 305.96H896.758L895.238 288.48H894.918L893.638 305.96ZM907.132 321.6L908.412 317H905.932V311.16H913.212V316.8L911.252 321.6H907.132ZM925.2 282.64H934.52C937.026 282.64 938.84 283.253 939.96 284.48C941.106 285.707 941.68 287.707 941.68 290.48V292C941.68 295.28 940.506 297.24 938.16 297.88C939.6 298.253 940.613 299.12 941.2 300.48C941.786 301.84 942.08 303.64 942.08 305.88C942.08 309.533 941.533 312.307 940.44 314.2C939.346 316.067 937.373 317 934.52 317H925.2V282.64ZM933.32 295.56C933.906 295.56 934.306 295.347 934.52 294.92C934.733 294.467 934.84 293.84 934.84 293.04V289.6C934.84 288.48 934.346 287.92 933.36 287.92H931.92V295.56H933.32ZM932.6 310.96C934.386 310.96 935.28 310.107 935.28 308.4V304.12C935.28 303.08 935.12 302.293 934.8 301.76C934.506 301.227 933.973 300.96 933.2 300.96H931.92V310.92L932.6 310.96ZM949.78 317.4C947.727 317.4 946.167 316.667 945.1 315.2C944.034 313.733 943.5 311.827 943.5 309.48C943.5 306.867 943.874 304.773 944.62 303.2C945.367 301.6 946.54 300.2 948.14 299C946.834 296.44 946.18 294.227 946.18 292.36C946.18 290.413 946.807 288.893 948.06 287.8C949.34 286.68 950.98 286.12 952.98 286.12C954.954 286.12 956.567 286.653 957.82 287.72C959.1 288.76 959.74 290.227 959.74 292.12C959.74 294.893 958.207 297.493 955.14 299.92L956.38 302.84C957.127 300.867 958.247 299.333 959.74 298.24L962.46 302.48C960.887 303.707 959.607 305.733 958.62 308.56L962.1 317H955.46L954.74 315.12C954.18 315.787 953.46 316.333 952.58 316.76C951.727 317.187 950.794 317.4 949.78 317.4ZM953.7 294.96C953.967 294.667 954.207 294.253 954.42 293.72C954.634 293.16 954.74 292.627 954.74 292.12C954.74 291.32 954.354 290.92 953.58 290.92C953.26 290.92 953.007 291.04 952.82 291.28C952.634 291.493 952.54 291.773 952.54 292.12C952.54 292.813 952.82 293.88 953.38 295.32L953.7 294.96ZM950.86 312.4C951.367 312.4 951.794 312.213 952.14 311.84C952.487 311.44 952.714 310.987 952.82 310.48L950.46 304.8L950.22 305.16C950.007 305.48 949.834 305.987 949.7 306.68C949.567 307.373 949.5 308.053 949.5 308.72V308.92C949.5 309.96 949.58 310.8 949.74 311.44C949.9 312.08 950.274 312.4 950.86 312.4ZM964.536 317V282.64H971.376V294.92H974.616V282.64H981.456V317H974.616V301.4H971.376V317H964.536Z" fill="white"/>
<path d="M172.847 0L322.537 85.75V257.25L172.847 343L23.1571 257.25V85.75L172.847 0Z" fill="#EFE200"/>
<path d="M712.228 272L737.54 286.5V315.5L712.228 330L686.916 315.5V286.5L712.228 272Z" fill="#EFE200"/>
<path d="M123.41 221.84C115.22 221.84 109.305 219.81 105.665 215.75C102.025 211.69 100.205 205.145 100.205 196.115V187.295H117.95V198.53C117.95 203.01 119.385 205.25 122.255 205.25C123.865 205.25 124.985 204.795 125.615 203.885C126.245 202.905 126.56 201.295 126.56 199.055C126.56 196.115 126.21 193.7 125.51 191.81C124.81 189.85 123.9 188.24 122.78 186.98C121.73 185.65 119.805 183.62 117.005 180.89L109.235 173.12C103.215 167.24 100.205 160.73 100.205 153.59C100.205 145.89 101.955 140.045 105.455 136.055C109.025 131.995 114.205 129.965 120.995 129.965C129.115 129.965 134.96 132.135 138.53 136.475C142.1 140.745 143.885 147.465 143.885 156.635H125.51L125.405 150.44C125.405 149.25 125.055 148.305 124.355 147.605C123.725 146.905 122.815 146.555 121.625 146.555C120.225 146.555 119.175 146.94 118.475 147.71C117.775 148.48 117.425 149.53 117.425 150.86C117.425 153.8 119.105 156.845 122.465 159.995L132.965 170.075C135.415 172.455 137.445 174.73 139.055 176.9C140.665 179 141.96 181.52 142.94 184.46C143.92 187.33 144.41 190.76 144.41 194.75C144.41 203.64 142.765 210.395 139.475 215.015C136.255 219.565 130.9 221.84 123.41 221.84ZM158.158 221V148.13H147.448V130.805H186.928V148.13H176.218V221H158.158ZM192.019 221V130.805H228.139V148.235H210.394V165.77H227.404V182.78H210.394V203.465H229.294V221H192.019ZM235.291 221V130.805H262.801L270.361 185.825L277.921 130.805H305.641V221H289.156V156.005L278.761 221H262.591L251.566 156.005V221H235.291Z" fill="#131313"/>
<path d="M359.765 221.84C352.485 221.84 346.955 219.635 343.175 215.225C339.395 210.745 337.505 204.48 337.505 196.43V153.485C337.505 145.715 339.395 139.87 343.175 135.95C346.955 131.96 352.485 129.965 359.765 129.965C367.045 129.965 372.575 131.96 376.355 135.95C380.135 139.87 382.025 145.715 382.025 153.485V196.43C382.025 204.55 380.135 210.815 376.355 215.225C372.575 219.635 367.045 221.84 359.765 221.84ZM359.765 205.25C361.375 205.25 362.46 204.55 363.02 203.15C363.58 201.75 363.86 199.79 363.86 197.27V153.17C363.86 151.21 363.58 149.635 363.02 148.445C362.53 147.185 361.48 146.555 359.87 146.555C356.86 146.555 355.355 148.83 355.355 153.38V197.375C355.355 199.965 355.67 201.925 356.3 203.255C356.93 204.585 358.085 205.25 359.765 205.25ZM410.199 221.84C402.779 221.84 397.249 219.74 393.609 215.54C390.039 211.34 388.254 205.11 388.254 196.85V130.805H405.789V196.115C405.789 198.985 406.069 201.225 406.629 202.835C407.189 204.445 408.379 205.25 410.199 205.25C412.019 205.25 413.209 204.48 413.769 202.94C414.329 201.33 414.609 199.055 414.609 196.115V130.805H432.144V196.85C432.144 205.11 430.324 211.34 426.684 215.54C423.114 219.74 417.619 221.84 410.199 221.84ZM446.806 221V148.13H436.096V130.805H475.576V148.13H464.866V221H446.806ZM502.087 221.84C493.897 221.84 487.982 219.81 484.342 215.75C480.702 211.69 478.882 205.145 478.882 196.115V187.295H496.627V198.53C496.627 203.01 498.062 205.25 500.932 205.25C502.542 205.25 503.662 204.795 504.292 203.885C504.922 202.905 505.237 201.295 505.237 199.055C505.237 196.115 504.887 193.7 504.187 191.81C503.487 189.85 502.577 188.24 501.457 186.98C500.407 185.65 498.482 183.62 495.682 180.89L487.912 173.12C481.892 167.24 478.882 160.73 478.882 153.59C478.882 145.89 480.632 140.045 484.132 136.055C487.702 131.995 492.882 129.965 499.672 129.965C507.792 129.965 513.637 132.135 517.207 136.475C520.777 140.745 522.562 147.465 522.562 156.635H504.187L504.082 150.44C504.082 149.25 503.732 148.305 503.032 147.605C502.402 146.905 501.492 146.555 500.302 146.555C498.902 146.555 497.852 146.94 497.152 147.71C496.452 148.48 496.102 149.53 496.102 150.86C496.102 153.8 497.782 156.845 501.142 159.995L511.642 170.075C514.092 172.455 516.122 174.73 517.732 176.9C519.342 179 520.637 181.52 521.617 184.46C522.597 187.33 523.087 190.76 523.087 194.75C523.087 203.64 521.442 210.395 518.152 215.015C514.932 219.565 509.577 221.84 502.087 221.84ZM528.225 221V130.805H545.655V221H528.225ZM552.854 130.805H577.739C584.179 130.805 589.009 132.59 592.229 136.16C595.449 139.73 597.094 145.015 597.164 152.015L597.374 194.225C597.444 203.115 595.904 209.8 592.754 214.28C589.604 218.76 584.389 221 577.109 221H552.854V130.805ZM574.169 205.04C577.459 205.04 579.104 203.43 579.104 200.21V153.695C579.104 151.665 578.929 150.16 578.579 149.18C578.299 148.13 577.739 147.43 576.899 147.08C576.059 146.73 574.764 146.555 573.014 146.555H571.019V205.04H574.169ZM604.636 221V130.805H640.756V148.235H623.011V165.77H640.021V182.78H623.011V203.465H641.911V221H604.636ZM680.287 221V148.13H669.577V130.805H709.057V148.13H698.347V221H680.287ZM714.148 221V130.805H732.103V163.04H740.608V130.805H758.563V221H740.608V180.05H732.103V221H714.148ZM766.546 221V130.805H802.666V148.235H784.921V165.77H801.931V182.78H784.921V203.465H803.821V221H766.546ZM834.427 130.805H858.892C865.472 130.805 870.232 132.415 873.172 135.635C876.182 138.855 877.687 144.105 877.687 151.385V155.375C877.687 163.985 874.607 169.13 868.447 170.81C872.227 171.79 874.887 174.065 876.427 177.635C877.967 181.205 878.737 185.93 878.737 191.81C878.737 201.4 877.302 208.68 874.432 213.65C871.562 218.55 866.382 221 858.892 221H834.427V130.805ZM855.742 164.72C857.282 164.72 858.332 164.16 858.892 163.04C859.452 161.85 859.732 160.205 859.732 158.105V149.075C859.732 146.135 858.437 144.665 855.847 144.665H852.067V164.72H855.742ZM853.852 205.145C858.542 205.145 860.887 202.905 860.887 198.425V187.19C860.887 184.46 860.467 182.395 859.627 180.995C858.857 179.595 857.457 178.895 855.427 178.895H852.067V205.04L853.852 205.145ZM906.196 221.84C898.916 221.84 893.386 219.635 889.606 215.225C885.826 210.745 883.936 204.48 883.936 196.43V153.485C883.936 145.715 885.826 139.87 889.606 135.95C893.386 131.96 898.916 129.965 906.196 129.965C913.476 129.965 919.006 131.96 922.786 135.95C926.566 139.87 928.456 145.715 928.456 153.485V196.43C928.456 204.55 926.566 210.815 922.786 215.225C919.006 219.635 913.476 221.84 906.196 221.84ZM906.196 205.25C907.806 205.25 908.891 204.55 909.451 203.15C910.011 201.75 910.291 199.79 910.291 197.27V153.17C910.291 151.21 910.011 149.635 909.451 148.445C908.961 147.185 907.911 146.555 906.301 146.555C903.291 146.555 901.786 148.83 901.786 153.38V197.375C901.786 199.965 902.101 201.925 902.731 203.255C903.361 204.585 904.516 205.25 906.196 205.25ZM933.11 221L942.77 173.12L935.105 130.7H952.745L957.47 161.78L961.565 130.7H979.31L971.54 173.12L981.2 221H962.93L957.26 185.72L951.485 221H933.11Z" fill="white"/>
</svg>
