<svg width="1146" height="344" viewBox="0 0 1146 344" fill="none" xmlns="http://www.w3.org/2000/svg">
<path d="M340.014 290.473H352.575C355.826 290.473 358.264 291.374 359.889 293.176C361.514 294.978 362.345 297.646 362.38 301.179L362.486 322.485C362.521 326.972 361.744 330.347 360.154 332.608C358.564 334.869 355.932 336 352.257 336H340.014V290.473ZM350.773 327.944C352.434 327.944 353.264 327.131 353.264 325.506V302.027C353.264 301.002 353.176 300.243 352.999 299.748C352.858 299.218 352.575 298.865 352.151 298.688C351.727 298.511 351.073 298.423 350.19 298.423H349.183V327.944H350.773ZM366.152 336V290.473H384.384V299.271H375.427V308.122H384.013V316.708H375.427V327.149H384.967V336H366.152ZM398.593 336.424C395.272 336.424 392.604 335.382 390.59 333.297C388.612 331.212 387.622 328.35 387.622 324.711V303.723C387.622 299.2 388.523 295.791 390.325 293.494C392.127 291.197 394.954 290.049 398.805 290.049C402.162 290.049 404.865 290.968 406.914 292.805C408.964 294.642 409.988 297.292 409.988 300.755V308.599H400.925V301.868C400.925 300.561 400.766 299.66 400.448 299.165C400.13 298.67 399.583 298.423 398.805 298.423C397.993 298.423 397.427 298.706 397.109 299.271C396.827 299.836 396.685 300.667 396.685 301.762V324.605C396.685 325.806 396.862 326.69 397.215 327.255C397.569 327.785 398.099 328.05 398.805 328.05C400.219 328.05 400.925 326.902 400.925 324.605V316.39H410.094V324.976C410.094 332.608 406.261 336.424 398.593 336.424ZM413.096 336V290.473H431.328V299.271H422.371V308.122H430.957V316.708H422.371V327.149H431.911V336H413.096ZM434.938 336V290.473H448.824L452.64 318.245L456.456 290.473H470.448V336H462.127V303.193L456.88 336H448.718L443.153 303.193V336H434.938ZM474.481 290.473H486.83C490.151 290.473 492.554 291.286 494.038 292.911C495.557 294.536 496.317 297.186 496.317 300.861V302.875C496.317 307.221 494.762 309.818 491.653 310.666C493.561 311.161 494.903 312.309 495.681 314.111C496.458 315.913 496.847 318.298 496.847 321.266C496.847 326.107 496.122 329.781 494.674 332.29C493.225 334.763 490.61 336 486.83 336H474.481V290.473ZM485.24 307.592C486.017 307.592 486.547 307.309 486.83 306.744C487.112 306.143 487.254 305.313 487.254 304.253V299.695C487.254 298.211 486.6 297.469 485.293 297.469H483.385V307.592H485.24ZM484.286 327.997C486.653 327.997 487.837 326.866 487.837 324.605V318.934C487.837 317.556 487.625 316.514 487.201 315.807C486.812 315.1 486.105 314.747 485.081 314.747H483.385V327.944L484.286 327.997ZM499.842 336V290.473H518.074V299.271H509.117V308.122H517.703V316.708H509.117V327.149H518.657V336H499.842ZM521.684 290.473H535.676C537.902 290.473 539.616 290.985 540.817 292.01C542.054 292.999 542.884 294.413 543.308 296.25C543.732 298.052 543.944 300.366 543.944 303.193C543.944 305.772 543.608 307.786 542.937 309.235C542.266 310.684 541.1 311.691 539.439 312.256C540.817 312.539 541.806 313.228 542.407 314.323C543.043 315.418 543.361 316.902 543.361 318.775L543.255 336H534.351V318.192C534.351 316.92 534.104 316.107 533.609 315.754C533.114 315.401 532.213 315.224 530.906 315.224V336H521.684V290.473ZM533.132 307.327C534.404 307.327 535.04 305.949 535.04 303.193C535.04 301.992 534.987 301.091 534.881 300.49C534.775 299.889 534.581 299.483 534.298 299.271C534.015 299.024 533.609 298.9 533.079 298.9H530.959V307.327H533.132ZM547.949 342.095L549.645 336H546.359V328.262H556.005V335.735L553.408 342.095H547.949ZM571.465 333.827C571.465 331.742 571.783 329.817 572.419 328.05C573.09 326.283 573.903 324.693 574.857 323.28C575.811 321.867 577.065 320.206 578.62 318.298C580.21 316.319 581.464 314.641 582.383 313.263C583.337 311.885 584.132 310.313 584.768 308.546C585.439 306.744 585.775 304.801 585.775 302.716C585.775 301.479 585.598 300.525 585.245 299.854C584.892 299.147 584.256 298.794 583.337 298.794C581.818 298.794 581.058 300.154 581.058 302.875V308.44H571.465L571.359 305.631C571.359 302.168 571.712 299.324 572.419 297.098C573.126 294.872 574.362 293.176 576.129 292.01C577.896 290.844 580.334 290.261 583.443 290.261C587.259 290.261 590.209 291.339 592.294 293.494C594.379 295.614 595.421 298.635 595.421 302.557C595.421 305.066 595.068 307.345 594.361 309.394C593.69 311.408 592.842 313.175 591.817 314.694C590.828 316.213 589.503 317.998 587.842 320.047C586.641 321.496 585.634 322.785 584.821 323.916C584.044 325.047 583.337 326.213 582.701 327.414H595.103V336H571.465V333.827ZM609.155 336.424C605.304 336.424 602.336 335.346 600.251 333.191C598.167 331 597.124 327.891 597.124 323.863V303.299C597.124 298.988 598.131 295.702 600.145 293.441C602.159 291.18 605.163 290.049 609.155 290.049C613.183 290.049 616.204 291.18 618.218 293.441C620.232 295.702 621.239 298.988 621.239 303.299V323.863C621.239 327.926 620.197 331.036 618.112 333.191C616.028 335.346 613.042 336.424 609.155 336.424ZM609.155 328.05C609.827 328.05 610.374 327.75 610.798 327.149C611.222 326.513 611.434 325.771 611.434 324.923V302.451C611.434 301.144 611.275 300.154 610.957 299.483C610.675 298.776 610.074 298.423 609.155 298.423C608.237 298.423 607.636 298.776 607.353 299.483C607.071 300.154 606.929 301.144 606.929 302.451V324.923C606.929 325.771 607.124 326.513 607.512 327.149C607.936 327.75 608.484 328.05 609.155 328.05ZM623.844 333.827C623.844 331.742 624.162 329.817 624.798 328.05C625.469 326.283 626.282 324.693 627.236 323.28C628.19 321.867 629.444 320.206 630.999 318.298C632.589 316.319 633.843 314.641 634.762 313.263C635.716 311.885 636.511 310.313 637.147 308.546C637.818 306.744 638.154 304.801 638.154 302.716C638.154 301.479 637.977 300.525 637.624 299.854C637.271 299.147 636.635 298.794 635.716 298.794C634.197 298.794 633.437 300.154 633.437 302.875V308.44H623.844L623.738 305.631C623.738 302.168 624.091 299.324 624.798 297.098C625.505 294.872 626.741 293.176 628.508 292.01C630.275 290.844 632.713 290.261 635.822 290.261C639.638 290.261 642.588 291.339 644.673 293.494C646.758 295.614 647.8 298.635 647.8 302.557C647.8 305.066 647.447 307.345 646.74 309.394C646.069 311.408 645.221 313.175 644.196 314.694C643.207 316.213 641.882 317.998 640.221 320.047C639.02 321.496 638.013 322.785 637.2 323.916C636.423 325.047 635.716 326.213 635.08 327.414H647.482V336H623.844V333.827ZM654.697 300.914C654.097 301.656 653.249 302.257 652.153 302.716C651.093 303.175 650.069 303.405 649.079 303.405V296.144C650.634 295.897 652.171 295.278 653.69 294.289C655.245 293.3 656.358 292.01 657.029 290.42H664.343V336H654.697V300.914Z" fill="white"/>
<path d="M770.936 336V299.218H765.53V290.473H785.458V299.218H780.052V336H770.936ZM798.575 336.424C794.829 336.424 792.038 335.364 790.201 333.244C788.399 331.124 787.498 327.979 787.498 323.81V290.473H796.349V323.439C796.349 324.888 796.49 326.018 796.773 326.831C797.055 327.644 797.656 328.05 798.575 328.05C799.493 328.05 800.094 327.661 800.377 326.884C800.659 326.071 800.801 324.923 800.801 323.439V290.473H809.652V323.81C809.652 327.979 808.733 331.124 806.896 333.244C805.094 335.364 802.32 336.424 798.575 336.424ZM811.964 336V327.732L822.352 298.847H812.971V290.473H831.998V298.423L821.345 327.626H831.521V336H811.964ZM834.868 336V290.473H843.984V328.262H853.365V336H834.868ZM854.715 336L859.114 290.473H874.537L878.883 336H870.244L869.608 328.633H864.096L863.566 336H854.715ZM864.785 321.372H868.919L866.905 298.211H866.481L864.785 321.372ZM882.665 342.095L884.361 336H881.075V328.262H890.721V335.735L888.124 342.095H882.665ZM906.605 290.473H918.954C922.275 290.473 924.678 291.286 926.162 292.911C927.681 294.536 928.441 297.186 928.441 300.861V302.875C928.441 307.221 926.886 309.818 923.777 310.666C925.685 311.161 927.027 312.309 927.805 314.111C928.582 315.913 928.971 318.298 928.971 321.266C928.971 326.107 928.246 329.781 926.798 332.29C925.349 334.763 922.734 336 918.954 336H906.605V290.473ZM917.364 307.592C918.141 307.592 918.671 307.309 918.954 306.744C919.236 306.143 919.378 305.313 919.378 304.253V299.695C919.378 298.211 918.724 297.469 917.417 297.469H915.509V307.592H917.364ZM916.41 327.997C918.777 327.997 919.961 326.866 919.961 324.605V318.934C919.961 317.556 919.749 316.514 919.325 315.807C918.936 315.1 918.229 314.747 917.205 314.747H915.509V327.944L916.41 327.997ZM939.174 336.53C936.453 336.53 934.386 335.558 932.973 333.615C931.56 331.672 930.853 329.145 930.853 326.036C930.853 322.573 931.348 319.8 932.337 317.715C933.326 315.595 934.881 313.74 937.001 312.15C935.27 308.758 934.404 305.825 934.404 303.352C934.404 300.773 935.234 298.759 936.895 297.31C938.591 295.826 940.764 295.084 943.414 295.084C946.029 295.084 948.166 295.791 949.827 297.204C951.523 298.582 952.371 300.525 952.371 303.034C952.371 306.709 950.339 310.154 946.276 313.369L947.919 317.238C948.908 314.623 950.392 312.592 952.371 311.143L955.975 316.761C953.89 318.386 952.194 321.072 950.887 324.817L955.498 336H946.7L945.746 333.509C945.004 334.392 944.05 335.117 942.884 335.682C941.753 336.247 940.517 336.53 939.174 336.53ZM944.368 306.797C944.721 306.408 945.039 305.861 945.322 305.154C945.605 304.412 945.746 303.705 945.746 303.034C945.746 301.974 945.234 301.444 944.209 301.444C943.785 301.444 943.449 301.603 943.202 301.921C942.955 302.204 942.831 302.575 942.831 303.034C942.831 303.953 943.202 305.366 943.944 307.274L944.368 306.797ZM940.605 329.905C941.276 329.905 941.842 329.658 942.301 329.163C942.76 328.633 943.061 328.032 943.202 327.361L940.075 319.835L939.757 320.312C939.474 320.736 939.245 321.407 939.068 322.326C938.891 323.245 938.803 324.146 938.803 325.029V325.294C938.803 326.672 938.909 327.785 939.121 328.633C939.333 329.481 939.828 329.905 940.605 329.905ZM958.725 336V290.473H967.788V306.744H972.081V290.473H981.144V336H972.081V315.33H967.788V336H958.725Z" fill="white"/>
<path d="M171.5 0L320.023 85.75V257.25L171.5 343L22.9766 257.25V85.75L171.5 0Z" fill="#EFE200"/>
<path d="M717 286L742.115 300.5V329.5L717 344L691.885 329.5V300.5L717 286Z" fill="#EFE200"/>
<path d="M122.41 221.84C114.22 221.84 108.305 219.81 104.665 215.75C101.025 211.69 99.205 205.145 99.205 196.115V187.295H116.95V198.53C116.95 203.01 118.385 205.25 121.255 205.25C122.865 205.25 123.985 204.795 124.615 203.885C125.245 202.905 125.56 201.295 125.56 199.055C125.56 196.115 125.21 193.7 124.51 191.81C123.81 189.85 122.9 188.24 121.78 186.98C120.73 185.65 118.805 183.62 116.005 180.89L108.235 173.12C102.215 167.24 99.205 160.73 99.205 153.59C99.205 145.89 100.955 140.045 104.455 136.055C108.025 131.995 113.205 129.965 119.995 129.965C128.115 129.965 133.96 132.135 137.53 136.475C141.1 140.745 142.885 147.465 142.885 156.635H124.51L124.405 150.44C124.405 149.25 124.055 148.305 123.355 147.605C122.725 146.905 121.815 146.555 120.625 146.555C119.225 146.555 118.175 146.94 117.475 147.71C116.775 148.48 116.425 149.53 116.425 150.86C116.425 153.8 118.105 156.845 121.465 159.995L131.965 170.075C134.415 172.455 136.445 174.73 138.055 176.9C139.665 179 140.96 181.52 141.94 184.46C142.92 187.33 143.41 190.76 143.41 194.75C143.41 203.64 141.765 210.395 138.475 215.015C135.255 219.565 129.9 221.84 122.41 221.84ZM157.158 221V148.13H146.448V130.805H185.928V148.13H175.218V221H157.158ZM191.019 221V130.805H227.139V148.235H209.394V165.77H226.404V182.78H209.394V203.465H228.294V221H191.019ZM234.291 221V130.805H261.801L269.361 185.825L276.921 130.805H304.641V221H288.156V156.005L277.761 221H261.591L250.566 156.005V221H234.291Z" fill="#131313"/>
<path d="M358.765 221.84C351.485 221.84 345.955 219.635 342.175 215.225C338.395 210.745 336.505 204.48 336.505 196.43V153.485C336.505 145.715 338.395 139.87 342.175 135.95C345.955 131.96 351.485 129.965 358.765 129.965C366.045 129.965 371.575 131.96 375.355 135.95C379.135 139.87 381.025 145.715 381.025 153.485V196.43C381.025 204.55 379.135 210.815 375.355 215.225C371.575 219.635 366.045 221.84 358.765 221.84ZM358.765 205.25C360.375 205.25 361.46 204.55 362.02 203.15C362.58 201.75 362.86 199.79 362.86 197.27V153.17C362.86 151.21 362.58 149.635 362.02 148.445C361.53 147.185 360.48 146.555 358.87 146.555C355.86 146.555 354.355 148.83 354.355 153.38V197.375C354.355 199.965 354.67 201.925 355.3 203.255C355.93 204.585 357.085 205.25 358.765 205.25ZM409.199 221.84C401.779 221.84 396.249 219.74 392.609 215.54C389.039 211.34 387.254 205.11 387.254 196.85V130.805H404.789V196.115C404.789 198.985 405.069 201.225 405.629 202.835C406.189 204.445 407.379 205.25 409.199 205.25C411.019 205.25 412.209 204.48 412.769 202.94C413.329 201.33 413.609 199.055 413.609 196.115V130.805H431.144V196.85C431.144 205.11 429.324 211.34 425.684 215.54C422.114 219.74 416.619 221.84 409.199 221.84ZM445.806 221V148.13H435.096V130.805H474.576V148.13H463.866V221H445.806ZM501.087 221.84C492.897 221.84 486.982 219.81 483.342 215.75C479.702 211.69 477.882 205.145 477.882 196.115V187.295H495.627V198.53C495.627 203.01 497.062 205.25 499.932 205.25C501.542 205.25 502.662 204.795 503.292 203.885C503.922 202.905 504.237 201.295 504.237 199.055C504.237 196.115 503.887 193.7 503.187 191.81C502.487 189.85 501.577 188.24 500.457 186.98C499.407 185.65 497.482 183.62 494.682 180.89L486.912 173.12C480.892 167.24 477.882 160.73 477.882 153.59C477.882 145.89 479.632 140.045 483.132 136.055C486.702 131.995 491.882 129.965 498.672 129.965C506.792 129.965 512.637 132.135 516.207 136.475C519.777 140.745 521.562 147.465 521.562 156.635H503.187L503.082 150.44C503.082 149.25 502.732 148.305 502.032 147.605C501.402 146.905 500.492 146.555 499.302 146.555C497.902 146.555 496.852 146.94 496.152 147.71C495.452 148.48 495.102 149.53 495.102 150.86C495.102 153.8 496.782 156.845 500.142 159.995L510.642 170.075C513.092 172.455 515.122 174.73 516.732 176.9C518.342 179 519.637 181.52 520.617 184.46C521.597 187.33 522.087 190.76 522.087 194.75C522.087 203.64 520.442 210.395 517.152 215.015C513.932 219.565 508.577 221.84 501.087 221.84ZM527.225 221V130.805H544.655V221H527.225ZM551.854 130.805H576.739C583.179 130.805 588.009 132.59 591.229 136.16C594.449 139.73 596.094 145.015 596.164 152.015L596.374 194.225C596.444 203.115 594.904 209.8 591.754 214.28C588.604 218.76 583.389 221 576.109 221H551.854V130.805ZM573.169 205.04C576.459 205.04 578.104 203.43 578.104 200.21V153.695C578.104 151.665 577.929 150.16 577.579 149.18C577.299 148.13 576.739 147.43 575.899 147.08C575.059 146.73 573.764 146.555 572.014 146.555H570.019V205.04H573.169ZM603.636 221V130.805H639.756V148.235H622.011V165.77H639.021V182.78H622.011V203.465H640.911V221H603.636ZM679.287 221V148.13H668.577V130.805H708.057V148.13H697.347V221H679.287ZM713.148 221V130.805H731.103V163.04H739.608V130.805H757.563V221H739.608V180.05H731.103V221H713.148ZM765.546 221V130.805H801.666V148.235H783.921V165.77H800.931V182.78H783.921V203.465H802.821V221H765.546ZM833.427 130.805H857.892C864.472 130.805 869.232 132.415 872.172 135.635C875.182 138.855 876.687 144.105 876.687 151.385V155.375C876.687 163.985 873.607 169.13 867.447 170.81C871.227 171.79 873.887 174.065 875.427 177.635C876.967 181.205 877.737 185.93 877.737 191.81C877.737 201.4 876.302 208.68 873.432 213.65C870.562 218.55 865.382 221 857.892 221H833.427V130.805ZM854.742 164.72C856.282 164.72 857.332 164.16 857.892 163.04C858.452 161.85 858.732 160.205 858.732 158.105V149.075C858.732 146.135 857.437 144.665 854.847 144.665H851.067V164.72H854.742ZM852.852 205.145C857.542 205.145 859.887 202.905 859.887 198.425V187.19C859.887 184.46 859.467 182.395 858.627 180.995C857.857 179.595 856.457 178.895 854.427 178.895H851.067V205.04L852.852 205.145ZM905.196 221.84C897.916 221.84 892.386 219.635 888.606 215.225C884.826 210.745 882.936 204.48 882.936 196.43V153.485C882.936 145.715 884.826 139.87 888.606 135.95C892.386 131.96 897.916 129.965 905.196 129.965C912.476 129.965 918.006 131.96 921.786 135.95C925.566 139.87 927.456 145.715 927.456 153.485V196.43C927.456 204.55 925.566 210.815 921.786 215.225C918.006 219.635 912.476 221.84 905.196 221.84ZM905.196 205.25C906.806 205.25 907.891 204.55 908.451 203.15C909.011 201.75 909.291 199.79 909.291 197.27V153.17C909.291 151.21 909.011 149.635 908.451 148.445C907.961 147.185 906.911 146.555 905.301 146.555C902.291 146.555 900.786 148.83 900.786 153.38V197.375C900.786 199.965 901.101 201.925 901.731 203.255C902.361 204.585 903.516 205.25 905.196 205.25ZM932.11 221L941.77 173.12L934.105 130.7H951.745L956.47 161.78L960.565 130.7H978.31L970.54 173.12L980.2 221H961.93L956.26 185.72L950.485 221H932.11Z" fill="#EEE9DC"/>
</svg>
